<?xml version="1.0" encoding="iso-8859-1"?>
<!-- Generator: Adobe Illustrator 19.0.0, SVG Export Plug-In . SVG Version: 6.00 Build 0)  -->
<svg version="1.1" id="Layer_1" xmlns="http://www.w3.org/2000/svg" xmlns:xlink="http://www.w3.org/1999/xlink" x="0px" y="0px"
	 viewBox="0 0 295.41 295.41" style="enable-background:new 0 0 295.41 295.41;" xml:space="preserve">
<g>
	<circle style="fill:#28D2E4;" cx="147.705" cy="147.705" r="140.205"/>
	<path style="fill:#22313F;" d="M295.41,147.705C295.41,66.486,229.371,0,147.705,0C66.062,0,0,66.469,0,147.705
		C0,228.924,66.039,295.41,147.705,295.41C228.802,295.41,295.41,229.505,295.41,147.705z M15.216,155.205h49.267
		c0.43,15.59,2.219,30.731,5.227,45H25.837C19.811,186.27,16.107,171.108,15.216,155.205z M25.837,95.205h43.874
		c-3.008,14.269-4.796,29.41-5.227,45H15.216C16.107,124.302,19.811,109.14,25.837,95.205z M280.194,140.205h-49.267
		c-0.431-15.59-2.219-30.731-5.227-45h43.874C275.599,109.14,279.303,124.302,280.194,140.205z M215.916,140.205h-60.711v-45h55.171
		C213.574,109.337,215.46,124.509,215.916,140.205z M155.205,80.205V15.832c26.099,5.752,43.115,38.571,51.146,64.373H155.205z
		 M140.205,15.832v64.373H89.059C97.1,54.372,114.153,21.574,140.205,15.832z M140.205,95.205v45H79.494
		c0.456-15.696,2.341-30.868,5.54-45H140.205z M79.494,155.205h60.711v45H85.034C81.836,186.073,79.951,170.901,79.494,155.205z
		 M140.205,215.205v64.373c-26.099-5.752-43.115-38.571-51.146-64.373H140.205z M155.205,279.578v-64.373h51.146
		C198.31,241.038,181.257,273.836,155.205,279.578z M155.205,200.205v-45h60.711c-0.456,15.696-2.342,30.868-5.54,45H155.205z
		 M230.926,155.205h49.267c-0.89,15.903-4.595,31.065-10.621,45h-43.874C228.708,185.936,230.496,170.795,230.926,155.205z
		 M261.917,80.205h-39.915c-5.858-20.478-15.36-41.614-29.315-57.351C221.856,33.395,246.302,53.885,261.917,80.205z
		 M102.724,22.854C88.769,38.591,79.267,59.727,73.409,80.205H33.493C49.108,53.885,73.554,33.395,102.724,22.854z M33.493,215.205
		h39.915c5.858,20.478,15.36,41.614,29.315,57.351C73.554,262.015,49.108,241.525,33.493,215.205z M192.686,272.556
		c13.955-15.737,23.457-36.873,29.315-57.351h39.915C246.302,241.525,221.856,262.015,192.686,272.556z"/>
</g>
<g>
</g>
<g>
</g>
<g>
</g>
<g>
</g>
<g>
</g>
<g>
</g>
<g>
</g>
<g>
</g>
<g>
</g>
<g>
</g>
<g>
</g>
<g>
</g>
<g>
</g>
<g>
</g>
<g>
</g>
</svg>
